<?xml version="1.0" encoding="UTF-8" standalone="no"?>
<svg width="191px" height="32px" viewBox="0 0 191 32" version="1.1" xmlns="http://www.w3.org/2000/svg" xmlns:xlink="http://www.w3.org/1999/xlink" xmlns:sketch="http://www.bohemiancoding.com/sketch/ns">
    <!-- Generator: Sketch 3.0.4 (8054) - http://www.bohemiancoding.com/sketch -->
    <title>Slice 2</title>
    <desc>Created with Sketch.</desc>
    <defs></defs>
    <g id="Page-1" stroke="none" stroke-width="1" fill="none" fill-rule="evenodd" sketch:type="MSPage">
        <g id="New-Logo" sketch:type="MSLayerGroup">
            <path d="M45.5100377,25.4200755 L45.5100377,5.47984906 L49.0076981,5.47984906 L49.0076981,22.341434 L57.797434,22.341434 L57.797434,25.4200755 L45.5100377,25.4200755" id="Fill-1" fill="#2C2C29" sketch:type="MSShapeGroup"></path>
            <path d="M69.8946415,25.4200755 L69.8946415,23.5073208 C68.8483019,24.6732075 67.0544906,25.7793208 64.7824906,25.7793208 C61.6730566,25.7793208 60.1491321,24.1648302 60.1491321,21.2051321 L60.1491321,10.9808302 L63.2875472,10.9808302 L63.2875472,20.0688302 C63.2875472,22.3112453 64.4238491,22.9989434 66.1874717,22.9989434 C67.7723774,22.9989434 69.1471698,22.1017358 69.8946415,21.1157736 L69.8946415,10.9808302 L73.0336604,10.9808302 L73.0336604,25.4200755 L69.8946415,25.4200755" id="Fill-2" fill="#2C2C29" sketch:type="MSShapeGroup"></path>
            <path d="M75.8424151,18.1856604 C75.8424151,13.8209811 78.9216604,10.6221887 83.3165283,10.6221887 C86.1264906,10.6221887 87.8309434,11.8176604 88.8470943,13.1930566 L86.7846038,15.1064151 C85.9773585,13.9701132 84.8712453,13.402566 83.4662642,13.402566 C80.8350189,13.402566 79.1015849,15.3756981 79.1015849,18.1856604 C79.1015849,20.9956226 80.8350189,22.9989434 83.4662642,22.9989434 C84.8712453,22.9989434 85.9773585,22.4012075 86.7846038,21.2944906 L88.8470943,23.2078491 C87.8309434,24.5838491 86.1264906,25.7793208 83.3165283,25.7793208 C78.9216604,25.7793208 75.8424151,22.5799245 75.8424151,18.1856604" id="Fill-3" fill="#2C2C29" sketch:type="MSShapeGroup"></path>
            <path d="M90.6366792,7.27366038 C90.6366792,6.19773585 91.5338868,5.33071698 92.5802264,5.33071698 C93.6561509,5.33071698 94.5231698,6.19773585 94.5231698,7.27366038 C94.5231698,8.35018868 93.6561509,9.21720755 92.5802264,9.21720755 C91.5338868,9.21720755 90.6366792,8.35018868 90.6366792,7.27366038 L90.6366792,7.27366038 Z M91.0255094,10.9808302 L94.1645283,10.9808302 L94.1645283,25.4206792 L91.0255094,25.4206792 L91.0255094,10.9808302 Z" id="Fill-4" fill="#2C2C29" sketch:type="MSShapeGroup"></path>
            <path d="M108.024755,25.4200755 L108.024755,23.4475472 C106.918642,24.882717 105.244377,25.7793208 103.391396,25.7793208 C99.6842264,25.7793208 96.9636226,22.9693585 96.9636226,18.2158491 C96.9636226,13.5516981 99.6540377,10.6221887 103.391396,10.6221887 C105.184604,10.6221887 106.858264,11.4590189 108.024755,12.9835472 L108.024755,5.47984906 L111.163774,5.47984906 L111.163774,25.4200755 L108.024755,25.4200755 L108.024755,25.4200755 Z M108.024755,21.0855849 L108.024755,15.3455094 C107.306868,14.2689811 105.78234,13.402566 104.288,13.402566 C101.807094,13.402566 100.222189,15.405283 100.222189,18.2158491 C100.222189,20.9956226 101.807094,22.9989434 104.288,22.9989434 C105.78234,22.9989434 107.306868,22.1621132 108.024755,21.0855849 L108.024755,21.0855849 Z" id="Fill-5" fill="#2C2C29" sketch:type="MSShapeGroup"></path>
            <path d="M127.545962,25.4200755 L124.197434,14.8371321 L120.848906,25.4200755 L117.560755,25.4200755 L113.076528,10.9808302 L116.335094,10.9808302 L119.384151,21.4738113 L122.822642,10.9808302 L125.57283,10.9808302 L129.010717,21.4738113 L132.060377,10.9808302 L135.318943,10.9808302 L130.834113,25.4200755 L127.545962,25.4200755" id="Fill-6" fill="#2C2C29" sketch:type="MSShapeGroup"></path>
            <path d="M136.05434,18.1856604 C136.05434,14.0600755 138.894491,10.6221887 143.468075,10.6221887 C148.102038,10.6221887 150.912,14.0600755 150.912,18.1856604 C150.912,22.341434 148.102038,25.7793208 143.468075,25.7793208 C138.894491,25.7793208 136.05434,22.341434 136.05434,18.1856604 L136.05434,18.1856604 Z M147.654038,18.1856604 C147.654038,15.6443774 146.158491,13.402566 143.468075,13.402566 C140.807849,13.402566 139.312302,15.6443774 139.312302,18.1856604 C139.312302,20.7571321 140.807849,22.9989434 143.468075,22.9989434 C146.158491,22.9989434 147.654038,20.7571321 147.654038,18.1856604 L147.654038,18.1856604 Z" id="Fill-7" fill="#2C2C29" sketch:type="MSShapeGroup"></path>
            <path d="M153.721962,25.4200755 L153.721962,10.9808302 L156.860981,10.9808302 L156.860981,13.1036981 C157.936906,11.7283019 159.670943,10.6517736 161.554113,10.6517736 L161.554113,13.7612075 C161.285434,13.701434 160.956377,13.6712453 160.567547,13.6712453 C159.252528,13.6712453 157.488302,14.5684528 156.860981,15.5846038 L156.860981,25.4200755 L153.721962,25.4200755" id="Fill-8" fill="#2C2C29" sketch:type="MSShapeGroup"></path>
            <path d="M173.184604,25.4200755 L168.760151,19.4710943 L166.75683,21.5341887 L166.75683,25.4200755 L163.617811,25.4200755 L163.617811,5.47984906 L166.75683,5.47984906 L166.75683,17.946566 L173.124226,10.9808302 L177.011321,10.9808302 L171.001962,17.5281509 L177.130868,25.4200755 L173.184604,25.4200755" id="Fill-9" fill="#2C2C29" sketch:type="MSShapeGroup"></path>
            <path d="M177.927245,23.5369057 L179.362415,21.2655094 C180.37917,22.3112453 182.381887,23.2978113 184.26566,23.2978113 C186.149434,23.2978113 187.105811,22.490566 187.105811,21.3548679 C187.105811,18.514717 178.375849,20.5476226 178.375849,15.0170566 C178.375849,12.6550943 180.409358,10.6221887 184.056151,10.6221887 C186.507472,10.6221887 188.36166,11.4892075 189.676679,12.6550943 L188.36166,14.8673208 C187.494038,13.8807547 185.879547,13.133283 184.08634,13.133283 C182.44166,13.133283 181.395321,13.8807547 181.395321,14.8969057 C181.395321,17.4683774 190.124679,15.5550189 190.124679,21.2944906 C190.124679,23.8357736 188.002415,25.7793208 184.115925,25.7793208 C181.664604,25.7793208 179.422189,25.0016604 177.927245,23.5369057" id="Fill-10" fill="#2C2C29" sketch:type="MSShapeGroup"></path>
            <path d="M29.869283,18.8624906 L10.802717,23.0846792 L6.5805283,4.01811321 L0.0434716981,5.46535849 L5.71350943,31.0689811 L31.3165283,25.3989434 L29.869283,18.8624906" id="Fill-11" fill="#9B252B" sketch:type="MSShapeGroup"></path>
            <path d="M28.544,12.8796981 L25.6470943,-0.204075472 L12.5633208,2.69343396 L15.4602264,15.7772075 L28.544,12.8796981" id="Fill-12" fill="#CA3134" sketch:type="MSShapeGroup"></path>
        </g>
    </g>
</svg>