<?xml version="1.0" encoding="UTF-8" standalone="no"?>
<svg width="202px" height="34px" viewBox="0 0 202 34" version="1.1" xmlns="http://www.w3.org/2000/svg" xmlns:xlink="http://www.w3.org/1999/xlink" xmlns:sketch="http://www.bohemiancoding.com/sketch/ns">
    <!-- Generator: Sketch 3.0.4 (8054) - http://www.bohemiancoding.com/sketch -->
    <title>Slice 2</title>
    <desc>Created with Sketch.</desc>
    <defs></defs>
    <g id="Page-1" stroke="none" stroke-width="1" fill="none" fill-rule="evenodd" sketch:type="MSPage">
        <g id="Imported-Layers-3" sketch:type="MSLayerGroup" fill="#FFFFFF">
            <path d="M48.3363556,27.536127 L48.3363556,6.35754921 L52.0512317,6.35754921 L52.0512317,24.2662921 L61.3868381,24.2662921 L61.3868381,27.536127 L48.3363556,27.536127" id="Fill-1" sketch:type="MSShapeGroup"></path>
            <path d="M74.2353206,27.536127 L74.2353206,25.5045841 C73.124,26.7428762 71.2187873,27.9176825 68.8056889,27.9176825 C65.5031492,27.9176825 63.8845841,26.202927 63.8845841,23.0594222 L63.8845841,12.2001587 L67.2179048,12.2001587 L67.2179048,21.8525524 C67.2179048,24.2342286 68.4247746,24.9646349 70.2979238,24.9646349 C71.9812571,24.9646349 73.4414286,24.0117079 74.2353206,22.963873 L74.2353206,12.2001587 L77.5692825,12.2001587 L77.5692825,27.536127 L74.2353206,27.536127" id="Fill-2" sketch:type="MSShapeGroup"></path>
            <path d="M80.5524698,19.8524317 C80.5524698,15.2160508 83.822946,11.8192444 88.4907492,11.8192444 C91.475219,11.8192444 93.2855238,13.0889587 94.364781,14.5504127 L92.1742032,16.5819556 C91.3168254,15.375727 90.142019,14.7722921 88.6497841,14.7722921 C85.8551302,14.7722921 84.0140444,16.8679619 84.0140444,19.8524317 C84.0140444,22.8369016 85.8551302,24.9646349 88.6497841,24.9646349 C90.142019,24.9646349 91.3168254,24.3297778 92.1742032,23.1543302 L94.364781,25.1865143 C93.2855238,26.6479683 91.475219,27.9176825 88.4907492,27.9176825 C83.822946,27.9176825 80.5524698,24.5195937 80.5524698,19.8524317" id="Fill-3" sketch:type="MSShapeGroup"></path>
            <path d="M96.2655048,8.2627619 C96.2655048,7.12001905 97.2184317,6.19915556 98.3297524,6.19915556 C99.4724952,6.19915556 100.393359,7.12001905 100.393359,8.2627619 C100.393359,9.40614603 99.4724952,10.3263683 98.3297524,10.3263683 C97.2184317,10.3263683 96.2655048,9.40614603 96.2655048,8.2627619 L96.2655048,8.2627619 Z M96.6784825,12.2001587 L100.012444,12.2001587 L100.012444,27.536127 L96.6784825,27.536127 L96.6784825,12.2001587 Z" id="Fill-4" sketch:type="MSShapeGroup"></path>
            <path d="M114.733435,27.536127 L114.733435,25.4410984 C113.558629,26.9653968 111.780387,27.9176825 109.81233,27.9176825 C105.874933,27.9176825 102.985371,24.9332127 102.985371,19.8844952 C102.985371,14.9306857 105.84287,11.8192444 109.81233,11.8192444 C111.716902,11.8192444 113.494502,12.7080444 114.733435,14.3278921 L114.733435,6.35754921 L118.067397,6.35754921 L118.067397,27.536127 L114.733435,27.536127 L114.733435,27.536127 Z M114.733435,22.9324508 L114.733435,16.8358984 C113.970965,15.6931556 112.351759,14.7722921 110.764616,14.7722921 C108.129638,14.7722921 106.446305,16.8993841 106.446305,19.8844952 C106.446305,22.8369016 108.129638,24.9646349 110.764616,24.9646349 C112.351759,24.9646349 113.970965,24.0758349 114.733435,22.9324508 L114.733435,22.9324508 Z" id="Fill-5" sketch:type="MSShapeGroup"></path>
            <path d="M135.466971,27.536127 L131.910489,16.2959492 L128.354006,27.536127 L124.861651,27.536127 L120.09894,12.2001587 L123.559873,12.2001587 L126.798286,23.3447873 L130.450317,12.2001587 L133.371302,12.2001587 L137.022692,23.3447873 L140.261746,12.2001587 L143.722679,12.2001587 L138.959327,27.536127 L135.466971,27.536127" id="Fill-6" sketch:type="MSShapeGroup"></path>
            <path d="M144.503746,19.8524317 C144.503746,15.4706349 147.520279,11.8192444 152.377898,11.8192444 C157.299644,11.8192444 160.284114,15.4706349 160.284114,19.8524317 C160.284114,24.2662921 157.299644,27.9176825 152.377898,27.9176825 C147.520279,27.9176825 144.503746,24.2662921 144.503746,19.8524317 L144.503746,19.8524317 Z M156.823822,19.8524317 C156.823822,17.153327 155.235397,14.7722921 152.377898,14.7722921 C149.552463,14.7722921 147.964038,17.153327 147.964038,19.8524317 C147.964038,22.5836 149.552463,24.9646349 152.377898,24.9646349 C155.235397,24.9646349 156.823822,22.5836 156.823822,19.8524317 L156.823822,19.8524317 Z" id="Fill-7" sketch:type="MSShapeGroup"></path>
            <path d="M163.268584,27.536127 L163.268584,12.2001587 L166.602546,12.2001587 L166.602546,14.4548635 C167.745289,12.9940508 169.587016,11.8513079 171.587137,11.8513079 L171.587137,15.1532063 C171.301771,15.0897206 170.952279,15.0576571 170.539302,15.0576571 C169.142616,15.0576571 167.268825,16.0105841 166.602546,17.0898413 L166.602546,27.536127 L163.268584,27.536127" id="Fill-8" sketch:type="MSShapeGroup"></path>
            <path d="M183.939917,27.536127 L179.240692,21.2176952 L177.112959,23.4089143 L177.112959,27.536127 L173.778997,27.536127 L173.778997,6.35754921 L177.112959,6.35754921 L177.112959,19.5978476 L183.87579,12.2001587 L188.004286,12.2001587 L181.621727,19.1540889 L188.131257,27.536127 L183.939917,27.536127" id="Fill-9" sketch:type="MSShapeGroup"></path>
            <path d="M188.977092,25.5360063 L190.50139,23.1235492 C191.581289,24.2342286 193.708381,25.2820635 195.709143,25.2820635 C197.709905,25.2820635 198.725676,24.4246857 198.725676,23.2184571 C198.725676,20.2019238 189.453556,22.3610794 189.453556,16.4870476 C189.453556,13.9784 191.613352,11.8192444 195.486622,11.8192444 C198.090178,11.8192444 200.059517,12.7401079 201.456203,13.9784 L200.059517,16.3280127 C199.138013,15.2801778 197.423257,14.4862857 195.518686,14.4862857 C193.771867,14.4862857 192.660546,15.2801778 192.660546,16.3600762 C192.660546,19.0906032 201.932025,17.058419 201.932025,23.1543302 C201.932025,25.8534349 199.677962,27.9176825 195.550108,27.9176825 C192.946552,27.9176825 190.564876,27.091727 188.977092,25.5360063" id="Fill-10" sketch:type="MSShapeGroup"></path>
            <path d="M31.7242603,20.5712952 L11.4736,25.0556952 L6.9892,4.80503492 L0.0461714286,6.3428 L6.06833651,33.5358476 L33.2613841,27.5136825 L31.7242603,20.5712952" id="Fill-11" sketch:type="MSShapeGroup"></path>
            <path d="M30.316673,14.2169524 L27.2398603,0.320634921 L13.3435429,3.39808889 L16.4203556,17.2944063 L30.316673,14.2169524" id="Fill-12" sketch:type="MSShapeGroup"></path>
        </g>
    </g>
</svg>